<svg width="31" height="32" viewBox="0 0 31 32" fill="none" xmlns="http://www.w3.org/2000/svg">
<path d="M0.797852 6C0.797852 2.68629 3.48414 0 6.79785 0H25.0001C28.3138 0 31.0001 2.68629 31.0001 6V26C31.0001 29.3137 28.3138 32 25.0001 32H6.79785C3.48414 32 0.797852 29.3137 0.797852 26V6Z" fill="#FAFAFA"/>
<path d="M7.74451 27.2958C7.69326 28.4541 6.91933 29.2074 5.88399 29.2074C5.3409 29.2074 4.87439 28.9974 4.50549 28.5823C4.1979 28.2389 4.03394 27.7931 4.03394 27.2908C4.03394 26.7833 4.22864 26.3169 4.60274 25.948C4.95636 25.5941 5.39197 25.4199 5.92499 25.4199C6.66817 25.4199 7.24221 25.7841 7.52411 26.4142H6.87331C6.63241 26.107 6.29409 25.948 5.88399 25.948C5.54065 25.948 5.22298 26.0809 4.98208 26.327C4.72589 26.5884 4.58242 26.9474 4.58242 27.2958C4.58242 27.6802 4.71547 28.0286 4.95131 28.2747C5.20247 28.5359 5.54567 28.6848 5.88399 28.6848C6.4325 28.6848 6.86287 28.3924 7.13973 27.8083H5.4894V27.2958H7.74451Z" fill="#0F0F0F"/>
<path d="M8.31167 29.1356H7.75293L9.17782 25.4918H9.69037L11.1151 29.1356H10.536L10.1362 28.075H8.72174L8.31167 29.1356ZM9.43416 26.1785L8.91121 27.5621H9.94653L9.43416 26.1785Z" fill="#0F0F0F"/>
<path d="M11.3137 29.1356V25.4918H12.0979L13.1537 28.3106L14.2094 25.4918H14.9835V29.1356H14.4862L14.5222 25.9736L13.3383 29.1356H12.9641L11.7854 25.9736L11.8212 29.1356H11.3137Z" fill="#0F0F0F"/>
<path d="M17.3036 29.2074C16.7651 29.2074 16.309 29.0076 15.9504 28.6283C15.607 28.2646 15.4326 27.8134 15.4326 27.2755C15.4326 26.7732 15.6223 26.3117 15.9861 25.9583C16.345 25.6043 16.7962 25.4199 17.3138 25.4199C18.1645 25.4199 18.892 25.9788 19.1279 26.8755H18.1645C17.9698 26.5167 17.6775 26.327 17.3188 26.327C16.7754 26.327 16.3502 26.7472 16.3502 27.2805C16.3502 27.8596 16.8013 28.3054 17.3036 28.3054C17.6467 28.3054 17.9493 28.121 18.144 27.7827H19.1126C18.8716 28.6693 18.1798 29.2074 17.3036 29.2074Z" fill="#0F0F0F"/>
<path d="M20.0132 29.1356H19.0393L20.4383 25.4918H21.1662L22.5652 29.1356H21.5813L21.4019 28.6078H20.1976L20.0132 29.1356ZM20.8022 26.6858L20.4383 27.8542H21.1612L20.8022 26.6858Z" fill="#0F0F0F"/>
<path d="M22.6357 29.1356V25.4918H23.8451C24.2295 25.4918 24.5218 25.5173 24.7679 25.6915C25.0908 25.9169 25.2599 26.2603 25.2599 26.7114C25.2599 27.3008 24.9523 27.7416 24.4348 27.8849L25.3265 29.1356H24.2244L23.5274 27.962V29.1356H22.6357ZM23.7018 27.1727C24.1426 27.1727 24.3576 27.0599 24.3576 26.7319C24.3576 26.4295 24.1682 26.3067 23.7735 26.3067H23.5274V27.1727H23.7018Z" fill="#0F0F0F"/>
<path d="M25.7305 29.1356V25.4918H27.7087V26.2964H26.6221V26.8857H27.7087V27.6954H26.6221V28.3311H27.7087V29.1356H25.7305Z" fill="#0F0F0F"/>
<path d="M27.0628 15.4833C26.965 15.4279 26.8572 15.3907 26.7416 15.3747C26.7142 15.37 26.6873 15.3691 26.6598 15.3665C26.6451 15.3657 26.631 15.362 26.6161 15.362H26.5747C26.5381 15.3611 26.5014 15.3593 26.4651 15.362H19.3395C18.8352 15.362 18.4264 15.7708 18.4264 16.2747C18.4264 16.7789 18.8352 17.1878 19.3395 17.1878H22.1079C22.1992 17.1885 22.2731 17.2627 22.2731 17.3542C22.2731 17.4071 22.2452 17.4506 22.2066 17.481C20.6887 18.2918 18.7364 18.7831 16.6003 18.7831C16.0804 18.7831 15.5721 18.7529 15.0774 18.6973V20.77C15.5083 20.8016 15.9459 20.8196 16.3901 20.8196C19.3631 20.8196 22.0676 20.0927 24.0948 18.9052L24.0953 18.908C24.1205 18.8949 24.1487 18.8873 24.1789 18.8873C24.2781 18.8873 24.3585 18.9677 24.3585 19.0669C24.3585 19.0849 24.3551 19.1024 24.3497 19.1193L23.9274 20.2662C23.705 20.8695 24.0137 21.5387 24.6172 21.7609C24.75 21.81 24.8859 21.833 25.0197 21.833C25.4934 21.833 25.9385 21.5417 26.112 21.0711L27.6401 16.9235C27.8476 16.3601 27.5887 15.744 27.0628 15.4833Z" fill="#231F20"/>
<path d="M16.6003 7.65141C18.7531 7.65141 20.724 8.14705 22.247 8.96934C22.247 8.96934 23.2142 9.66543 23.6742 8.99721C24.2024 8.23046 23.1481 7.75316 23.1481 7.75316C21.2581 6.86453 18.9205 6.33905 16.3901 6.33905C15.9459 6.33905 15.5083 6.35703 15.0774 6.38867V7.73752C15.5721 7.68197 16.0804 7.65141 16.6003 7.65141Z" fill="#231F20"/>
<path d="M5.65867 2.8764C4.76984 2.8764 4.04858 3.5973 4.04858 4.48647V22.0545C4.04858 22.9438 4.76984 23.6644 5.65867 23.6644H15.0774V20.77C9.41038 20.356 5.00877 17.2953 5.00877 13.5793C5.00877 9.86319 9.41038 6.80288 15.0774 6.38867V2.8764H5.65867Z" fill="#0F0F0F"/>
<path d="M7.86084 13.2175C7.86084 15.9601 10.9771 18.238 15.0774 18.6974V7.73755C10.9771 8.1967 7.86084 10.4744 7.86084 13.2175Z" fill="#0F0F0F"/>
</svg>
