<svg width="24" height="24" viewBox="0 0 24 24" fill="none" xmlns="http://www.w3.org/2000/svg">
<path d="M12 2C6.49 2 2 6.49 2 12C2 17.51 6.49 22 12 22C17.51 22 22 17.51 22 12C22 6.49 17.51 2 12 2ZM21.13 11.57H19.6C19.5381 10.5263 19.266 9.50593 18.8 8.57L20.13 7.8C20.71 8.93 21.07 10.2 21.13 11.56V11.57ZM19.69 7.06L18.36 7.84C17.7843 6.96434 17.0357 6.21567 16.16 5.64L16.94 4.31C18.0402 5.03017 18.9798 5.9698 19.7 7.07L19.69 7.06ZM12.43 2.87C13.79 2.94 15.06 3.29 16.19 3.87L15.42 5.2C14.51 4.74 13.5 4.46 12.42 4.4V2.87H12.43ZM11.57 2.87V4.4C10.5 4.47 9.48 4.74 8.57 5.2L7.8 3.87C8.93 3.29 10.2 2.93 11.56 2.87H11.57ZM7.06 4.31L7.83 5.64C6.97 6.21 6.21 6.97 5.64 7.83L4.31 7.06C5.03017 5.9598 5.9698 5.02017 7.07 4.3L7.06 4.31ZM3.87 7.81L5.2 8.58C4.74 9.49 4.46 10.5 4.4 11.58H2.87C2.94 10.22 3.29 8.95 3.87 7.82V7.81ZM2.87 12.43H4.4C4.47 13.5 4.74 14.52 5.2 15.43L3.87 16.2C3.29 15.07 2.93 13.8 2.87 12.44V12.43ZM4.31 16.94L5.64 16.16C6.21 17.03 6.97 17.79 7.84 18.36L7.06 19.69C5.9598 18.9698 5.02017 18.0302 4.3 16.93L4.31 16.94ZM11.57 21.13C10.2599 21.0672 8.97818 20.7264 7.81 20.13L8.58 18.8C9.49 19.26 10.5 19.54 11.58 19.6V21.13H11.57ZM11.57 18.73C10.66 18.68 9.79 18.43 9.01 18.04C8.74531 17.924 8.49386 17.7798 8.26 17.61C7.51007 17.1201 6.86992 16.4799 6.38 15.73C6.21019 15.4961 6.06603 15.2447 5.95 14.98C5.56 14.2 5.31 13.33 5.27 12.42C5.24 12.28 5.24 12.13 5.24 11.99C5.24 11.85 5.24 11.7 5.27 11.56C5.31 10.65 5.56 9.78 5.95 9C6.06 8.74 6.21 8.49 6.38 8.25C6.87 7.5 7.51 6.86 8.26 6.37C8.5 6.2 8.75 6.05 9.01 5.94C9.79 5.55 10.66 5.3 11.57 5.26C11.71 5.23 11.86 5.23 12 5.23C12.14 5.23 12.29 5.23 12.43 5.26C13.34 5.3 14.21 5.55 14.99 5.94C15.25 6.05 15.5 6.2 15.74 6.37C16.49 6.86 17.13 7.5 17.62 8.25C17.79 8.49 17.94 8.74 18.05 9C18.44 9.78 18.69 10.65 18.74 11.56C18.76 11.7 18.76 11.85 18.76 11.99C18.76 12.13 18.76 12.28 18.74 12.42C18.69 13.33 18.44 14.2 18.05 14.98C17.94 15.24 17.79 15.49 17.62 15.73C17.13 16.48 16.49 17.12 15.74 17.61C15.5 17.78 15.25 17.93 14.99 18.04C14.21 18.43 13.34 18.68 12.43 18.73C12.29 18.75 12.14 18.75 12 18.75C11.86 18.75 11.71 18.75 11.57 18.73ZM12.43 21.13V19.6C13.5 19.53 14.52 19.26 15.43 18.8L16.2 20.13C15.07 20.71 13.8 21.07 12.44 21.13H12.43ZM16.94 19.69L16.17 18.36C17.03 17.79 17.79 17.03 18.36 16.17L19.69 16.94C18.9698 18.0402 18.0302 18.9798 16.93 19.7L16.94 19.69ZM20.13 16.19L18.8 15.42C19.26 14.51 19.54 13.5 19.6 12.42H21.13C21.0672 13.7301 20.7264 15.0118 20.13 16.18V16.19Z" fill="#E1E1E1"/>
<path d="M12.51 11.56V9.09999C12.98 9.28999 13.3 9.72999 13.3 10.25C13.3 10.53 13.52 10.75 13.8 10.75C14.08 10.75 14.3 10.53 14.3 10.25C14.3 9.17999 13.53 8.27999 12.51 8.05999V7.48999C12.51 7.20999 12.29 6.98999 12.01 6.98999C11.73 6.98999 11.51 7.20999 11.51 7.48999V8.05999C10.49 8.27999 9.71997 9.17999 9.71997 10.25C9.71997 11.32 10.49 12.22 11.51 12.44V14.9C11.04 14.71 10.72 14.27 10.72 13.75C10.72 13.47 10.5 13.25 10.22 13.25C9.93997 13.25 9.71997 13.47 9.71997 13.75C9.71997 14.82 10.49 15.72 11.51 15.94V16.51C11.51 16.79 11.73 17.01 12.01 17.01C12.29 17.01 12.51 16.79 12.51 16.51V15.94C13.53 15.72 14.3 14.82 14.3 13.75C14.3 12.68 13.53 11.78 12.51 11.56ZM11.51 9.09999V11.4C11.04 11.21 10.72 10.77 10.72 10.25C10.72 9.72999 11.05 9.28999 11.51 9.09999ZM13.3 13.75C13.3 14.27 12.97 14.71 12.51 14.9V12.6C12.98 12.79 13.3 13.23 13.3 13.75Z" fill="#E1E1E1"/>
</svg>
