<svg width="33" height="32" viewBox="0 0 33 32" fill="none" xmlns="http://www.w3.org/2000/svg">
<circle cx="16.7977" cy="16" r="14.5882" fill="#FAFAFA"/>
<path d="M16.7976 2.82349C24.0631 2.82349 29.9741 8.7345 29.9741 16C29.9741 23.2655 24.0631 29.1765 16.7976 29.1765C9.5321 29.1765 3.62114 23.2655 3.62114 16C3.62114 8.7345 9.5321 2.82349 16.7976 2.82349ZM16.7976 0C7.96109 0 0.797607 7.16345 0.797607 16C0.797607 24.8365 7.96109 32 16.7976 32C25.6341 32 32.7976 24.8365 32.7976 16C32.7976 7.16345 25.6341 0 16.7976 0Z" fill="#0F0F0F"/>
<path d="M10.3851 20.7845H8.52554V13.7766C7.84602 14.4119 7.04526 14.8817 6.12329 15.1861V13.4985C6.60856 13.3397 7.1358 13.0387 7.70484 12.5952C8.27407 12.1519 8.66446 11.6346 8.87623 11.0434H10.3851V20.7845Z" fill="#0F0F0F"/>
<path d="M14.7592 15.5499C14.2783 15.347 13.9287 15.0681 13.7104 14.7128C13.4918 14.3578 13.3826 13.9684 13.3826 13.5449C13.3826 12.8212 13.6353 12.2236 14.1405 11.7515C14.6455 11.2794 15.3636 11.0434 16.2945 11.0434C17.2164 11.0434 17.9323 11.2794 18.4418 11.7515C18.9514 12.2236 19.2063 12.8212 19.2063 13.5449C19.2063 13.9949 19.0894 14.3953 18.8556 14.746C18.6216 15.0966 18.2929 15.3647 17.8694 15.5499C18.4078 15.7662 18.8168 16.0817 19.0971 16.4964C19.3772 16.9111 19.5172 17.3897 19.5172 17.9324C19.5172 18.828 19.2317 19.5559 18.6602 20.1161C18.0889 20.6765 17.329 20.9566 16.3805 20.9566C15.4982 20.9566 14.7635 20.7251 14.1768 20.2618C13.4841 19.7146 13.1379 18.9647 13.1379 18.0118C13.1379 17.4869 13.268 17.0048 13.5283 16.5658C13.7887 16.1269 14.1988 15.7882 14.7592 15.5499ZM14.971 17.833C14.971 18.3448 15.1022 18.7441 15.3648 19.0309C15.6272 19.3176 15.9547 19.4611 16.3474 19.4611C16.7312 19.4611 17.0489 19.3231 17.3004 19.0475C17.5519 18.7718 17.6776 18.3735 17.6776 17.853C17.6776 17.3986 17.5496 17.0334 17.2938 16.7579C17.0378 16.4821 16.7137 16.3441 16.321 16.3441C15.8666 16.3441 15.528 16.5007 15.3051 16.8139C15.0824 17.1271 14.971 17.4669 14.971 17.833ZM15.143 13.6772C15.143 14.0478 15.2479 14.3367 15.4574 14.5442C15.6669 14.7514 15.9458 14.8552 16.2945 14.8552C16.6474 14.8552 16.9297 14.7503 17.1415 14.5408C17.3533 14.3313 17.4592 14.0412 17.4592 13.6706C17.4592 13.3221 17.3544 13.043 17.1449 12.8335C16.9352 12.624 16.6585 12.5192 16.3144 12.5192C15.9569 12.5192 15.6723 12.6249 15.4606 12.8367C15.2488 13.0485 15.143 13.3287 15.143 13.6772Z" fill="#0F0F0F"/>
<path d="M23.2299 19.3883V16.867H20.6887V15.1265H23.2299V12.6052H24.924V15.1265H27.4718V16.867H24.924V19.3883H23.2299Z" fill="#0F0F0F"/>
</svg>
